Coordinates
version=1
nRows=7
nColumns=33
inDegrees=yes

Units are S.I. units (second, meters, Newtons, ...)
Angles are in degrees.

endheader
time	ground_thorax_rot_x	ground_thorax_rot_y	ground_thorax_rot_z	ground_thorax_tx	ground_thorax_ty	ground_thorax_tz	clav_prot_r	clav_elev_r	scapula_abduction_r	scapula_elevation_r	scapula_upward_rot_r	scapula_winging_r	shoulder_elv_r	plane_of_elev_r	axial_rot_r	elbow_flexion_r	pro_sup_r	wrist_flex_r	wrist_dev_r	clav_prot_l	clav_elev_l	scapula_abduction_l	scapula_elevation_l	scapula_upward_rot_l	scapula_winging_l	shoulder_elv_l	plane_of_elev_l	axial_rot_l	elbow_flexion_l	pro_sup_l	wrist_flex_l	wrist_dev_l
      9.71000000	     25.43249356	     33.57085187	     48.32593727	     69.95186467	    794.50730944	    -43.14450431	     13.43772487	     35.72823915	     30.20956504	     45.00000000	    -45.00000000	    640.25023241	   1510.10439070	     23.13695545	    179.99999979	   3600.74828334	   -170.24295396	     12.58366946	     14.19529631	    -13.09573856	    -45.00000000	    -34.84000173	     45.00000000	    -45.00000000	   5496.46031118	  -4052.62155603	    134.16507026	   -121.01169645	   2869.83773366	     49.05904449	     12.78509273	    -15.08723454
      9.72000000	     25.33764946	     33.69953147	     48.48918064	     72.50388186	    792.73592961	    -42.91887850	     13.48784323	     35.70024884	     30.08409806	     45.00000000	    -45.00000000	    640.46736653	   1510.01342408	     23.08416032	    179.99999979	   3600.94208447	   -170.01944953	     12.52208080	     14.12367656	    -13.30547263	    -45.00000000	    -34.65854538	     45.00000000	    -45.00000000	   5496.39852447	  -4052.86954088	    134.32127779	   -121.65903378	   2869.81912496	     49.22003634	     12.67137358	    -14.97374783
      9.73000000	     25.33259371	     33.78414797	     48.52107904	     74.97088360	    790.99798062	    -42.70112665	     13.47097381	     35.73580299	     30.03166426	     45.00000000	    -45.00000000	    640.62109457	   1509.91188799	     23.07174641	    179.99999979	   3601.10966577	   -169.86232354	     12.48335189	     14.09248150	    -13.53538831	    -45.00000000	    -34.47517342	     45.00000000	    -45.00000000	   5496.34332291	  -4053.08110161	    134.40700186	   -122.15272094	   2869.77928780	     49.35970620	     12.64288362	    -14.92112117
      9.74000000	     25.30420573	     33.90140612	     48.54507675	     77.33975462	    789.30774757	    -42.48940070	     13.37337582	     35.77905070	     29.87811156	     45.00000000	    -45.00000000	    640.97674846	   1509.96774451	     22.92768202	    179.99999979	   3601.32217292	   -169.78578717	     12.44540179	     14.02490557	    -13.68156107	    -45.00000000	    -34.31215323	     45.00000000	    -45.00000000	   5496.18236916	  -4053.34566104	    134.58617854	   -122.80870637	   2869.85141232	     49.46171906	     12.55818461	    -14.85622863
      9.75000000	     25.25766931	     34.02476299	     48.56076466	     79.59929588	    787.67531112	    -42.28172572	     13.39736257	     35.78729131	     29.74568844	     45.00000000	    -45.00000000	    641.16893829	   1509.89620555	     22.89655937	    179.99999979	   3601.51819544	   -169.83373279	     12.42543806	     13.96444173	    -13.87411617	    -45.00000000	    -34.17032774	     45.00000000	    -45.00000000	   5496.10458304	  -4053.54739893	    134.67503007	   -123.40471237	   2869.84078472	     49.54873709	     12.48499988	    -14.75492427
      9.76000000	     25.24554767	     34.11691109	     48.57803370	     81.72675778	    786.11294968	    -42.07752839	     13.31408453	     35.81974124	     29.59677183	     45.00000000	    -45.00000000	    641.52038668	   1509.97620078	     22.78004170	    179.99999979	   3601.72131860	   -169.93164262	     12.42638815	     13.86741315	    -14.01467931	    -45.00000000	    -34.01336640	     45.00000000	    -45.00000000	   5495.97180107	  -4053.79657683	    134.90033169	   -124.02291390	   2869.88714187	     49.58938697	     12.39255258	    -14.64967465
      9.77000000	     25.23523748	     34.26190257	     48.40787897	     83.71294752	    784.62565988	    -41.87738532	     13.31971356	     35.86601443	     29.14525512	     45.00000000	    -45.00000000	    641.86245969	   1510.09522146	     22.76163284	    179.99999979	   3601.81360506	   -170.05994796	     12.48323304	     13.69369670	    -14.17488737	    -45.00000000	    -33.89110523	     45.00000000	    -45.00000000	   5495.66997459	  -4054.05599608	    135.00426558	   -124.71000139	   2869.97501790	     49.59759926	     12.20886863	    -14.46132336
